<?xml version="1.0" standalone="no"?>
<!DOCTYPE svg PUBLIC "-//W3C//DTD SVG 20010904//EN"
 "http://www.w3.org/TR/2001/REC-SVG-20010904/DTD/svg10.dtd">
<svg version="1.0" xmlns="http://www.w3.org/2000/svg"
 width="381.000000pt" height="756.000000pt" viewBox="0 0 381.000000 756.000000"
 preserveAspectRatio="xMidYMid meet">

<g transform="translate(0.000000,756.000000) scale(0.100000,-0.100000)"
fill="#000000" stroke="none">
<path d="M1600 7096 c0 -3 14 -28 30 -54 37 -61 38 -69 1 -43 -46 33 -49 25
-6 -19 43 -45 39 -47 -47 -24 -33 8 -62 13 -64 11 -3 -2 14 -17 36 -32 22 -15
38 -31 34 -34 -3 -3 -62 -8 -132 -11 l-126 -5 73 -50 73 -50 -53 -5 c-38 -4
-86 -22 -166 -63 -62 -31 -113 -59 -113 -61 0 -3 38 -17 85 -32 47 -16 85 -31
85 -34 0 -4 -39 -28 -87 -54 l-88 -47 54 4 c48 4 52 3 36 -9 -10 -8 -24 -15
-29 -16 -6 0 11 -4 39 -7 l50 -6 -73 -53 c-39 -29 -72 -55 -72 -58 0 -4 29 -3
65 1 36 3 65 3 65 -1 0 -5 -26 -32 -57 -62 l-58 -53 58 32 c31 17 57 29 57 26
0 -3 -18 -27 -40 -53 -23 -25 -39 -48 -36 -51 2 -2 23 5 46 17 23 12 44 19 47
17 2 -3 -12 -38 -32 -78 l-37 -74 47 45 47 45 -6 -30 c-23 -124 -21 -127 32
-41 l30 50 8 -75 7 -74 12 50 11 50 8 -45 c9 -51 25 -86 26 -60 1 10 4 8 9 -5
7 -17 9 -16 15 13 5 21 13 32 26 32 16 0 17 -9 12 -110 l-5 -110 41 0 c41 0
72 -19 72 -45 0 -7 14 -16 30 -20 19 -4 30 -13 30 -24 0 -9 14 -28 31 -40 33
-25 59 -75 59 -116 0 -46 27 -40 110 24 92 71 128 81 144 39 7 -20 5 -35 -7
-59 -9 -19 -14 -35 -12 -37 7 -7 108 28 143 50 20 13 71 35 112 49 41 15 114
41 162 59 l87 32 -29 55 c-43 79 -47 114 -19 152 21 28 28 31 79 31 53 0 58
-2 97 -42 23 -24 55 -74 73 -113 17 -38 50 -89 73 -113 44 -45 169 -127 276
-181 34 -18 93 -57 132 -89 64 -52 69 -59 69 -95 0 -23 4 -36 10 -32 6 3 10
25 10 48 0 38 -6 48 -47 89 -32 31 -74 58 -123 79 -41 17 -127 67 -192 111
l-116 79 -72 117 c-93 151 -113 172 -161 172 l-37 0 -6 58 c-4 31 -10 66 -13
77 -6 20 -5 20 16 1 24 -22 27 -12 6 24 -8 14 -14 34 -15 44 0 19 0 19 23 0
53 -47 53 -40 1 60 -31 58 -52 106 -48 106 4 0 36 -16 71 -35 35 -19 63 -32
63 -29 0 3 -37 50 -81 106 l-82 100 71 -4 c39 -2 69 -1 67 2 -2 3 -44 19 -94
35 -50 16 -91 32 -91 36 0 4 10 10 23 13 21 6 20 8 -15 26 -55 29 -58 55 -12
94 85 70 84 68 39 62 -22 -3 -65 -9 -95 -12 l-55 -7 60 56 60 56 -85 -33 c-47
-19 -86 -33 -87 -32 -2 1 13 32 33 69 l35 67 -53 -21 c-99 -40 -107 -43 -110
-39 -2 3 -15 30 -30 60 l-27 55 -1 -45 0 -45 -55 85 c-55 85 -64 86 -45 5 5
-22 8 -41 6 -42 -2 -2 -30 28 -62 67 -32 39 -60 67 -62 62 -1 -4 7 -34 18 -66
16 -48 17 -57 4 -52 -8 3 -40 13 -72 22 -51 15 -86 35 -189 112 -18 14 -33 22
-33 18z"/>
<path d="M1884 5454 c-89 -75 -364 -344 -364 -357 0 -25 227 145 242 181 6 15
57 73 112 129 55 56 98 105 95 108 -3 3 -41 -25 -85 -61z"/>
<path d="M2790 5409 c0 -46 -5 -178 -11 -294 -8 -172 -18 -249 -51 -425 -22
-118 -41 -216 -42 -218 -2 -1 -10 44 -20 100 -33 202 -38 228 -45 224 -4 -3
-24 -48 -45 -100 -22 -53 -41 -94 -43 -92 -2 2 12 129 31 283 20 153 36 290
36 305 0 21 -26 49 -127 140 -71 62 -135 118 -143 125 -10 7 21 -97 77 -263
l93 -275 -26 -122 c-14 -67 -26 -126 -28 -132 -2 -5 -2 55 1 135 l5 145 -69
150 -69 149 -57 14 c-32 8 -60 12 -62 10 -3 -3 31 -93 75 -201 44 -107 80
-206 79 -219 l0 -23 -9 22 c-9 23 -192 285 -196 280 -1 -1 3 -31 9 -67 8 -54
21 -82 75 -165 95 -146 99 -156 46 -95 -68 76 -127 137 -121 125 2 -5 33 -59
69 -120 37 -60 71 -130 78 -155 26 -99 83 -267 100 -295 11 -18 32 -110 54
-235 84 -481 95 -532 128 -596 l32 -61 -26 -59 c-24 -55 -27 -89 -62 -539
l-36 -480 70 -260 c46 -169 82 -332 104 -465 19 -113 37 -219 41 -235 9 -41
-71 154 -85 207 -7 24 -34 111 -60 193 -27 83 -77 256 -110 385 -59 223 -70
261 -70 230 0 -29 -41 -346 -47 -360 -7 -19 -42 149 -42 208 -1 24 31 287 69
585 39 298 70 548 70 557 0 8 -21 -22 -46 -68 -25 -46 -48 -81 -51 -79 -2 3
12 59 31 125 l36 120 -70 134 c-76 146 -96 211 -145 478 -23 124 -32 152 -60
195 -19 27 -32 51 -31 53 2 2 37 -13 77 -34 53 -26 69 -31 59 -18 -8 11 -59
72 -113 136 -80 96 -105 119 -137 129 -37 11 -40 16 -59 78 -11 36 -19 66 -18
67 9 9 144 -67 201 -113 39 -31 66 -51 60 -43 -6 8 -39 51 -74 94 -36 44 -58
76 -50 71 36 -22 -84 107 -174 187 -116 103 -191 138 -292 138 -82 0 -94 -14
-71 -80 9 -26 17 -59 17 -74 0 -14 10 -45 21 -70 25 -50 20 -76 -14 -76 -23 0
-54 26 -75 65 -10 17 -11 15 -12 -21 0 -43 26 -87 73 -124 32 -25 41 -25 34 0
-6 24 15 27 34 4 11 -14 10 -21 -4 -46 -9 -16 -17 -38 -17 -49 0 -10 -6 -19
-12 -19 -8 -1 -6 -6 5 -14 16 -13 17 -20 7 -76 -8 -44 -8 -70 -1 -89 19 -47
152 -604 161 -671 17 -136 118 -444 181 -558 35 -62 72 -165 122 -337 26 -88
40 -162 52 -279 8 -87 14 -161 12 -163 -3 -2 -7 20 -11 49 -14 108 -89 384
-110 405 -5 5 -163 31 -216 36 -47 4 -56 3 -57 -11 0 -10 -34 -105 -75 -212
-41 -107 -101 -286 -133 -397 -33 -111 -61 -201 -63 -199 -2 2 11 161 28 353
28 316 34 355 60 427 16 44 28 80 27 81 -143 83 -142 83 -178 -100 -11 -60
-36 -146 -54 -190 -37 -91 -96 -283 -120 -395 -29 -130 -65 -248 -109 -353
-24 -57 -46 -129 -50 -162 -4 -33 -25 -105 -47 -161 l-39 -100 -61 -30 -61
-29 41 -12 c22 -6 49 -18 60 -25 19 -14 19 -15 1 -56 l-19 -42 47 0 c99 0 599
31 637 40 60 14 54 4 -9 -14 -59 -17 -294 -32 -671 -41 -116 -3 -351 -12 -524
-20 -172 -8 -328 -15 -347 -15 l-34 0 0 -95 0 -96 403 4 c340 3 772 21 1205
50 49 4 62 2 62 -10 0 -7 9 -32 20 -53 15 -30 27 -40 44 -40 19 0 27 -8 36
-35 6 -19 15 -35 19 -35 14 0 99 95 103 115 4 19 5 19 17 -3 15 -28 12 -31
-70 -102 l-57 -50 -15 42 c-13 39 -17 43 -44 40 -29 -3 -31 0 -47 56 l-16 58
-57 -3 c-32 -2 -217 -12 -412 -23 -194 -10 -357 -22 -361 -27 -4 -4 -22 -44
-40 -88 -69 -169 -102 -213 -210 -273 -93 -51 -111 -67 -142 -124 -15 -28 -28
-53 -28 -55 0 -9 28 0 50 17 14 11 40 20 59 20 19 0 49 5 67 12 42 15 77 0 99
-42 14 -27 14 -40 5 -87 -7 -31 -26 -79 -43 -106 -21 -35 -32 -67 -35 -106 -4
-52 -9 -61 -64 -123 l-60 -68 499 0 500 0 11 25 c10 22 18 25 62 25 34 0 67
-8 100 -25 l49 -25 471 0 c263 0 470 4 470 9 0 5 -7 25 -15 44 -8 20 -35 107
-59 194 -55 195 -76 383 -76 677 l0 201 31 -55 c16 -30 38 -64 48 -75 15 -16
22 -64 40 -273 16 -182 28 -269 43 -310 17 -50 19 -72 14 -187 -4 -72 -9 -151
-13 -177 l-6 -48 182 0 c163 0 181 2 181 17 0 9 -23 147 -51 306 -27 159 -49
296 -47 304 2 8 31 -23 66 -70 l62 -85 30 -228 c17 -126 30 -232 30 -236 0 -4
38 -8 83 -8 l84 0 -13 97 c-8 53 -12 98 -10 100 2 3 20 1 40 -2 33 -7 36 -10
36 -40 0 -17 3 -60 6 -94 l7 -61 64 0 c35 0 62 3 60 8 -3 4 -1 16 3 27 6 18 8
18 34 -8 25 -25 33 -27 114 -27 l87 0 -27 23 c-14 12 -36 42 -49 67 -50 102
-139 215 -213 270 -28 20 -103 84 -166 140 -63 56 -145 127 -181 157 -36 30
-122 121 -190 201 -68 81 -154 178 -190 216 l-66 69 -114 -8 -114 -7 -3 -36
c-1 -19 -4 -38 -7 -40 -3 -3 -33 -8 -67 -11 l-63 -6 -3 -40 -3 -41 -70 -13
c-71 -13 -71 -13 -98 13 -15 14 -39 26 -52 26 -23 0 -28 7 -44 60 l-18 60 -43
0 c-38 0 -42 -2 -38 -23 l5 -22 -13 23 c-14 27 0 42 40 42 28 0 36 18 23 53
-8 21 -17 27 -42 27 -24 0 -30 3 -25 16 3 9 6 20 6 25 0 5 6 9 14 9 33 0 29
45 -5 55 -10 4 -19 14 -19 23 0 11 3 13 8 6 4 -6 21 -18 38 -27 30 -16 32 -15
42 8 12 27 72 338 72 374 0 12 -13 39 -30 59 l-30 38 52 273 c29 150 54 269
56 263 1 -5 -16 -123 -38 -263 -22 -139 -40 -261 -40 -271 0 -10 20 -36 45
-59 25 -23 45 -48 45 -56 0 -7 30 -42 66 -76 61 -57 72 -63 133 -74 47 -8 78
-9 109 -1 23 6 44 9 46 7 1 -2 24 -43 50 -91 26 -49 52 -88 57 -88 27 0 754
52 756 54 2 2 -16 63 -38 137 -40 128 -42 140 -43 274 -1 131 -3 143 -28 191
-15 28 -36 89 -48 135 -12 46 -37 112 -56 146 -26 46 -34 73 -34 110 0 75 -21
164 -49 208 l-25 40 23 160 c12 88 29 188 37 223 10 48 12 79 4 131 -9 61 -7
76 14 138 15 45 26 106 30 174 4 57 16 137 27 178 19 73 19 73 0 140 -11 36
-23 80 -27 96 -6 27 -12 18 -74 -110 -38 -77 -69 -137 -69 -134 -1 4 21 68 48
143 48 131 50 143 66 324 22 256 42 385 71 465 13 38 24 71 24 75 0 3 -22 -29
-50 -73 -65 -103 -74 -111 -66 -60 3 22 13 97 22 166 22 179 7 258 -86 464
-54 120 -161 317 -186 344 -2 2 -4 -34 -4 -80z m-433 -611 c-3 -8 -6 -5 -6 6
-1 11 2 17 5 13 3 -3 4 -12 1 -19z m-270 -2450 c-3 -7 -5 -2 -5 12 0 14 2 19
5 13 2 -7 2 -19 0 -25z m-301 -838 c12 -33 24 -50 35 -50 18 0 49 -56 49 -87
-1 -10 -10 3 -22 30 -11 26 -27 47 -34 47 -8 0 -23 18 -34 40 -11 22 -25 40
-30 40 -13 0 -110 -60 -110 -68 0 -4 4 -13 9 -21 8 -12 13 -12 35 2 36 24 54
21 23 -3 -34 -27 -61 -25 -75 4 -9 20 -7 27 11 43 23 21 107 73 118 73 4 0 15
-22 25 -50z m-36 -90 c0 -13 -38 -47 -77 -70 -48 -28 -40 -16 12 20 28 19 45
38 45 51 0 11 5 17 10 14 6 -3 10 -10 10 -15z"/>
<path d="M3246 5153 c-3 -16 -8 -50 -12 -78 -6 -47 -69 -244 -81 -255 -3 -3
-3 33 0 80 4 47 4 81 2 75 -8 -17 -85 -358 -82 -361 2 -2 28 34 58 79 l54 82
3 -40 c2 -22 -6 -179 -17 -350 -26 -407 -34 -622 -22 -629 5 -3 12 75 16 192
4 108 13 246 21 306 8 61 14 153 14 205 0 177 18 314 50 385 29 63 29 66 14
103 -13 30 -15 58 -11 136 6 96 4 122 -7 70z"/>
<path d="M1633 3928 c0 -51 -3 -177 -7 -280 l-8 -186 -59 -22 c-33 -11 -72
-32 -87 -45 l-27 -23 24 -54 c13 -29 26 -67 28 -85 5 -30 8 -32 66 -42 86 -16
277 -34 284 -28 3 3 -9 43 -26 89 -54 147 -101 344 -132 553 -10 70 -46 215
-54 215 -1 0 -2 -42 -2 -92z"/>
<path d="M1485 3152 c-3 -16 -18 -35 -35 -46 -25 -14 -30 -23 -30 -57 0 -21 5
-39 10 -39 6 0 10 15 10 34 0 26 5 36 20 41 11 3 24 14 29 23 14 29 22 72 12
72 -5 0 -12 -13 -16 -28z"/>
<path d="M2380 1412 l0 -72 51 0 c37 0 48 3 43 13 -9 16 -75 109 -86 122 -4 5
-8 -23 -8 -63z"/>
<path d="M3369 1386 c-2 -2 -225 -16 -496 -32 l-491 -28 -6 -30 c-3 -17 -8
-61 -12 -98 l-7 -66 39 4 c22 3 268 27 549 54 483 46 510 49 527 70 22 27 23
62 3 100 -14 26 -21 30 -59 30 -23 0 -45 -2 -47 -4z"/>
<path d="M2965 1174 c-143 -12 -264 -23 -268 -23 -17 -2 120 -143 193 -200 41
-32 145 -106 230 -166 85 -59 217 -153 292 -209 l138 -101 30 -83 c16 -46 30
-93 31 -105 0 -12 11 -58 24 -102 19 -67 23 -74 24 -44 1 27 16 56 60 119 l60
83 -30 39 c-17 21 -35 40 -40 44 -5 3 -37 46 -71 97 -88 131 -116 196 -270
620 l-20 57 -62 -1 c-33 -1 -178 -12 -321 -25z"/>
</g>
</svg>
